<svg width="101" height="78" viewBox="0 0 101 78" fill="none" xmlns="http://www.w3.org/2000/svg">
<g opacity="0.3">
<mask id="mask0_1_11" style="mask-type:alpha" maskUnits="userSpaceOnUse" x="15" y="0" width="8" height="8">
<path d="M18.9096 7.97735C21.0689 7.97735 22.8193 6.19152 22.8193 3.98865C22.8193 1.78577 21.0689 0 18.9096 0C16.7504 0 15 1.78577 15 3.98865C15 6.19152 16.7504 7.97735 18.9096 7.97735Z" fill="url(#paint0_linear_1_11)"/>
</mask>
<g mask="url(#mask0_1_11)">
<path d="M18.9096 7.97735C21.0689 7.97735 22.8193 6.19152 22.8193 3.98865C22.8193 1.78577 21.0689 0 18.9096 0C16.7504 0 15 1.78577 15 3.98865C15 6.19152 16.7504 7.97735 18.9096 7.97735Z" fill="url(#paint1_linear_1_11)"/>
</g>
<mask id="mask1_1_11" style="mask-type:alpha" maskUnits="userSpaceOnUse" x="37" y="0" width="9" height="8">
<path d="M41.5525 7.97735C43.7117 7.97735 45.4621 6.19152 45.4621 3.98865C45.4621 1.78577 43.7117 0 41.5525 0C39.3933 0 37.6429 1.78577 37.6429 3.98865C37.6429 6.19152 39.3933 7.97735 41.5525 7.97735Z" fill="url(#paint2_linear_1_11)"/>
</mask>
<g mask="url(#mask1_1_11)">
<path d="M41.5529 7.97735C43.7121 7.97735 45.4625 6.19152 45.4625 3.98865C45.4625 1.78577 43.7121 0 41.5529 0C39.3937 0 37.6432 1.78577 37.6432 3.98865C37.6432 6.19152 39.3937 7.97735 41.5529 7.97735Z" fill="url(#paint3_linear_1_11)"/>
</g>
<mask id="mask2_1_11" style="mask-type:alpha" maskUnits="userSpaceOnUse" x="60" y="0" width="9" height="8">
<path d="M64.1953 7.97735C66.3546 7.97735 68.105 6.19152 68.105 3.98865C68.105 1.78577 66.3546 0 64.1953 0C62.0361 0 60.2857 1.78577 60.2857 3.98865C60.2857 6.19152 62.0361 7.97735 64.1953 7.97735Z" fill="url(#paint4_linear_1_11)"/>
</mask>
<g mask="url(#mask2_1_11)">
<path d="M64.196 7.97735C66.3552 7.97735 68.1056 6.19152 68.1056 3.98865C68.1056 1.78577 66.3552 0 64.196 0C62.0368 0 60.2864 1.78577 60.2864 3.98865C60.2864 6.19152 62.0368 7.97735 64.196 7.97735Z" fill="url(#paint5_linear_1_11)"/>
</g>
<mask id="mask3_1_11" style="mask-type:alpha" maskUnits="userSpaceOnUse" x="82" y="0" width="9" height="8">
<path d="M86.8382 7.97735C88.9974 7.97735 90.7478 6.19152 90.7478 3.98865C90.7478 1.78577 88.9974 0 86.8382 0C84.6789 0 82.9285 1.78577 82.9285 3.98865C82.9285 6.19152 84.6789 7.97735 86.8382 7.97735Z" fill="url(#paint6_linear_1_11)"/>
</mask>
<g mask="url(#mask3_1_11)">
<path d="M86.8388 7.97735C88.998 7.97735 90.7484 6.19152 90.7484 3.98865C90.7484 1.78577 88.998 0 86.8388 0C84.6795 0 82.9291 1.78577 82.9291 3.98865C82.9291 6.19152 84.6795 7.97735 86.8388 7.97735Z" fill="url(#paint7_linear_1_11)"/>
</g>
<mask id="mask4_1_11" style="mask-type:alpha" maskUnits="userSpaceOnUse" x="15" y="20" width="8" height="9">
<path d="M18.9096 28.0037C21.0689 28.0037 22.8193 26.2179 22.8193 24.015C22.8193 21.8122 21.0689 20.0264 18.9096 20.0264C16.7504 20.0264 15 21.8122 15 24.015C15 26.2179 16.7504 28.0037 18.9096 28.0037Z" fill="url(#paint8_linear_1_11)"/>
</mask>
<g mask="url(#mask4_1_11)">
<path d="M18.9096 28.0037C21.0689 28.0037 22.8193 26.218 22.8193 24.0151C22.8193 21.8122 21.0689 20.0265 18.9096 20.0265C16.7504 20.0265 15 21.8122 15 24.0151C15 26.218 16.7504 28.0037 18.9096 28.0037Z" fill="url(#paint9_linear_1_11)"/>
</g>
<mask id="mask5_1_11" style="mask-type:alpha" maskUnits="userSpaceOnUse" x="37" y="20" width="9" height="9">
<path d="M41.5525 28.0038C43.7117 28.0038 45.4621 26.218 45.4621 24.0151C45.4621 21.8123 43.7117 20.0265 41.5525 20.0265C39.3933 20.0265 37.6429 21.8123 37.6429 24.0151C37.6429 26.218 39.3933 28.0038 41.5525 28.0038Z" fill="url(#paint10_linear_1_11)"/>
</mask>
<g mask="url(#mask5_1_11)">
<path d="M41.5529 28.0037C43.7121 28.0037 45.4625 26.2179 45.4625 24.0151C45.4625 21.8122 43.7121 20.0264 41.5529 20.0264C39.3937 20.0264 37.6432 21.8122 37.6432 24.0151C37.6432 26.2179 39.3937 28.0037 41.5529 28.0037Z" fill="url(#paint11_linear_1_11)"/>
</g>
<mask id="mask6_1_11" style="mask-type:alpha" maskUnits="userSpaceOnUse" x="60" y="20" width="9" height="9">
<path d="M64.1953 28.0038C66.3546 28.0038 68.105 26.218 68.105 24.0151C68.105 21.8123 66.3546 20.0265 64.1953 20.0265C62.0361 20.0265 60.2857 21.8123 60.2857 24.0151C60.2857 26.218 62.0361 28.0038 64.1953 28.0038Z" fill="url(#paint12_linear_1_11)"/>
</mask>
<g mask="url(#mask6_1_11)">
<path d="M64.196 28.0037C66.3552 28.0037 68.1056 26.2179 68.1056 24.0151C68.1056 21.8122 66.3552 20.0264 64.196 20.0264C62.0368 20.0264 60.2864 21.8122 60.2864 24.0151C60.2864 26.2179 62.0368 28.0037 64.196 28.0037Z" fill="url(#paint13_linear_1_11)"/>
</g>
<mask id="mask7_1_11" style="mask-type:alpha" maskUnits="userSpaceOnUse" x="82" y="20" width="9" height="9">
<path d="M86.8382 28.0038C88.9974 28.0038 90.7478 26.218 90.7478 24.0151C90.7478 21.8123 88.9974 20.0265 86.8382 20.0265C84.6789 20.0265 82.9285 21.8123 82.9285 24.0151C82.9285 26.218 84.6789 28.0038 86.8382 28.0038Z" fill="url(#paint14_linear_1_11)"/>
</mask>
<g mask="url(#mask7_1_11)">
<path d="M86.8388 28.0037C88.998 28.0037 90.7484 26.2179 90.7484 24.0151C90.7484 21.8122 88.998 20.0264 86.8388 20.0264C84.6795 20.0264 82.9291 21.8122 82.9291 24.0151C82.9291 26.2179 84.6795 28.0037 86.8388 28.0037Z" fill="url(#paint15_linear_1_11)"/>
</g>
<mask id="mask8_1_11" style="mask-type:alpha" maskUnits="userSpaceOnUse" x="15" y="40" width="8" height="8">
<path d="M18.9096 47.9887C21.0689 47.9887 22.8193 46.2029 22.8193 44C22.8193 41.7971 21.0689 40.0113 18.9096 40.0113C16.7504 40.0113 15 41.7971 15 44C15 46.2029 16.7504 47.9887 18.9096 47.9887Z" fill="url(#paint16_linear_1_11)"/>
</mask>
<g mask="url(#mask8_1_11)">
<path d="M18.9096 47.9888C21.0689 47.9888 22.8193 46.203 22.8193 44.0001C22.8193 41.7972 21.0689 40.0114 18.9096 40.0114C16.7504 40.0114 15 41.7972 15 44.0001C15 46.203 16.7504 47.9888 18.9096 47.9888Z" fill="url(#paint17_linear_1_11)"/>
</g>
<mask id="mask9_1_11" style="mask-type:alpha" maskUnits="userSpaceOnUse" x="37" y="40" width="9" height="8">
<path d="M41.5525 47.9889C43.7117 47.9889 45.4621 46.2032 45.4621 44.0003C45.4621 41.7974 43.7117 40.0116 41.5525 40.0116C39.3933 40.0116 37.6429 41.7974 37.6429 44.0003C37.6429 46.2032 39.3933 47.9889 41.5525 47.9889Z" fill="url(#paint18_linear_1_11)"/>
</mask>
<g mask="url(#mask9_1_11)">
<path d="M41.5529 47.9888C43.7121 47.9888 45.4625 46.203 45.4625 44.0001C45.4625 41.7972 43.7121 40.0114 41.5529 40.0114C39.3937 40.0114 37.6432 41.7972 37.6432 44.0001C37.6432 46.203 39.3937 47.9888 41.5529 47.9888Z" fill="url(#paint19_linear_1_11)"/>
</g>
<mask id="mask10_1_11" style="mask-type:alpha" maskUnits="userSpaceOnUse" x="60" y="40" width="9" height="8">
<path d="M64.1953 47.9889C66.3546 47.9889 68.105 46.2032 68.105 44.0003C68.105 41.7974 66.3546 40.0116 64.1953 40.0116C62.0361 40.0116 60.2857 41.7974 60.2857 44.0003C60.2857 46.2032 62.0361 47.9889 64.1953 47.9889Z" fill="url(#paint20_linear_1_11)"/>
</mask>
<g mask="url(#mask10_1_11)">
<path d="M64.196 47.9888C66.3552 47.9888 68.1056 46.203 68.1056 44.0001C68.1056 41.7972 66.3552 40.0114 64.196 40.0114C62.0368 40.0114 60.2864 41.7972 60.2864 44.0001C60.2864 46.203 62.0368 47.9888 64.196 47.9888Z" fill="url(#paint21_linear_1_11)"/>
</g>
<mask id="mask11_1_11" style="mask-type:alpha" maskUnits="userSpaceOnUse" x="82" y="40" width="9" height="8">
<path d="M86.8382 47.9889C88.9974 47.9889 90.7478 46.2032 90.7478 44.0003C90.7478 41.7974 88.9974 40.0116 86.8382 40.0116C84.6789 40.0116 82.9285 41.7974 82.9285 44.0003C82.9285 46.2032 84.6789 47.9889 86.8382 47.9889Z" fill="url(#paint22_linear_1_11)"/>
</mask>
<g mask="url(#mask11_1_11)">
<path d="M86.8388 47.9888C88.998 47.9888 90.7484 46.203 90.7484 44.0001C90.7484 41.7972 88.998 40.0114 86.8388 40.0114C84.6795 40.0114 82.9291 41.7972 82.9291 44.0001C82.9291 46.203 84.6795 47.9888 86.8388 47.9888Z" fill="url(#paint23_linear_1_11)"/>
</g>
<mask id="mask12_1_11" style="mask-type:alpha" maskUnits="userSpaceOnUse" x="15" y="60" width="8" height="9">
<path d="M18.9096 68.0155C21.0689 68.0155 22.8193 66.2296 22.8193 64.0268C22.8193 61.8239 21.0689 60.0381 18.9096 60.0381C16.7504 60.0381 15 61.8239 15 64.0268C15 66.2296 16.7504 68.0155 18.9096 68.0155Z" fill="url(#paint24_linear_1_11)"/>
</mask>
<g mask="url(#mask12_1_11)">
<path d="M18.9096 68.0152C21.0689 68.0152 22.8193 66.2294 22.8193 64.0265C22.8193 61.8236 21.0689 60.0379 18.9096 60.0379C16.7504 60.0379 15 61.8236 15 64.0265C15 66.2294 16.7504 68.0152 18.9096 68.0152Z" fill="url(#paint25_linear_1_11)"/>
</g>
<mask id="mask13_1_11" style="mask-type:alpha" maskUnits="userSpaceOnUse" x="37" y="60" width="9" height="9">
<path d="M41.5525 68.0155C43.7117 68.0155 45.4621 66.2296 45.4621 64.0268C45.4621 61.8239 43.7117 60.0381 41.5525 60.0381C39.3933 60.0381 37.6429 61.8239 37.6429 64.0268C37.6429 66.2296 39.3933 68.0155 41.5525 68.0155Z" fill="url(#paint26_linear_1_11)"/>
</mask>
<g mask="url(#mask13_1_11)">
<path d="M41.5529 68.0152C43.7121 68.0152 45.4625 66.2294 45.4625 64.0265C45.4625 61.8236 43.7121 60.0379 41.5529 60.0379C39.3937 60.0379 37.6432 61.8236 37.6432 64.0265C37.6432 66.2294 39.3937 68.0152 41.5529 68.0152Z" fill="url(#paint27_linear_1_11)"/>
</g>
<mask id="mask14_1_11" style="mask-type:alpha" maskUnits="userSpaceOnUse" x="60" y="60" width="9" height="9">
<path d="M64.1953 68.0155C66.3546 68.0155 68.105 66.2296 68.105 64.0268C68.105 61.8239 66.3546 60.0381 64.1953 60.0381C62.0361 60.0381 60.2857 61.8239 60.2857 64.0268C60.2857 66.2296 62.0361 68.0155 64.1953 68.0155Z" fill="url(#paint28_linear_1_11)"/>
</mask>
<g mask="url(#mask14_1_11)">
<path d="M64.196 68.0152C66.3552 68.0152 68.1056 66.2294 68.1056 64.0265C68.1056 61.8236 66.3552 60.0379 64.196 60.0379C62.0368 60.0379 60.2864 61.8236 60.2864 64.0265C60.2864 66.2294 62.0368 68.0152 64.196 68.0152Z" fill="url(#paint29_linear_1_11)"/>
</g>
<mask id="mask15_1_11" style="mask-type:alpha" maskUnits="userSpaceOnUse" x="82" y="60" width="9" height="9">
<path d="M86.8382 68.0155C88.9974 68.0155 90.7478 66.2296 90.7478 64.0268C90.7478 61.8239 88.9974 60.0381 86.8382 60.0381C84.6789 60.0381 82.9285 61.8239 82.9285 64.0268C82.9285 66.2296 84.6789 68.0155 86.8382 68.0155Z" fill="url(#paint30_linear_1_11)"/>
</mask>
<g mask="url(#mask15_1_11)">
<path d="M86.8388 68.0152C88.998 68.0152 90.7484 66.2294 90.7484 64.0265C90.7484 61.8236 88.998 60.0379 86.8388 60.0379C84.6795 60.0379 82.9291 61.8236 82.9291 64.0265C82.9291 66.2294 84.6795 68.0152 86.8388 68.0152Z" fill="url(#paint31_linear_1_11)"/>
</g>
</g>
<defs>
<linearGradient id="paint0_linear_1_11" x1="53.076" y1="92.4707" x2="-2.48604" y2="-45.7764" gradientUnits="userSpaceOnUse">
<stop stop-color="#FFA434"/>
<stop offset="1" stop-color="#FFA434"/>
</linearGradient>
<linearGradient id="paint1_linear_1_11" x1="53.076" y1="92.4707" x2="-2.48604" y2="-45.7764" gradientUnits="userSpaceOnUse">
<stop stop-color="#FFA434"/>
<stop offset="1" stop-color="#FFA434"/>
</linearGradient>
<linearGradient id="paint2_linear_1_11" x1="75.7189" y1="92.4707" x2="20.1569" y2="-45.7764" gradientUnits="userSpaceOnUse">
<stop stop-color="#FFA434"/>
<stop offset="1" stop-color="#FFA434"/>
</linearGradient>
<linearGradient id="paint3_linear_1_11" x1="75.7193" y1="92.4707" x2="20.1573" y2="-45.7764" gradientUnits="userSpaceOnUse">
<stop stop-color="#FFA434"/>
<stop offset="1" stop-color="#FFA434"/>
</linearGradient>
<linearGradient id="paint4_linear_1_11" x1="98.3617" y1="92.4707" x2="42.7998" y2="-45.7764" gradientUnits="userSpaceOnUse">
<stop stop-color="#FFA434"/>
<stop offset="1" stop-color="#FFA434"/>
</linearGradient>
<linearGradient id="paint5_linear_1_11" x1="98.3624" y1="92.4707" x2="42.8004" y2="-45.7764" gradientUnits="userSpaceOnUse">
<stop stop-color="#FFA434"/>
<stop offset="1" stop-color="#FFA434"/>
</linearGradient>
<linearGradient id="paint6_linear_1_11" x1="121.005" y1="92.4707" x2="65.4426" y2="-45.7764" gradientUnits="userSpaceOnUse">
<stop stop-color="#FFA434"/>
<stop offset="1" stop-color="#FFA434"/>
</linearGradient>
<linearGradient id="paint7_linear_1_11" x1="121.005" y1="92.4707" x2="65.4432" y2="-45.7764" gradientUnits="userSpaceOnUse">
<stop stop-color="#FFA434"/>
<stop offset="1" stop-color="#FFA434"/>
</linearGradient>
<linearGradient id="paint8_linear_1_11" x1="53.076" y1="112.496" x2="-2.4851" y2="-25.7499" gradientUnits="userSpaceOnUse">
<stop stop-color="#FFA434"/>
<stop offset="1" stop-color="#FFA434"/>
</linearGradient>
<linearGradient id="paint9_linear_1_11" x1="53.076" y1="112.496" x2="-2.4851" y2="-25.7499" gradientUnits="userSpaceOnUse">
<stop stop-color="#FFA434"/>
<stop offset="1" stop-color="#FFA434"/>
</linearGradient>
<linearGradient id="paint10_linear_1_11" x1="75.7189" y1="112.496" x2="20.1579" y2="-25.7499" gradientUnits="userSpaceOnUse">
<stop stop-color="#FFA434"/>
<stop offset="1" stop-color="#FFA434"/>
</linearGradient>
<linearGradient id="paint11_linear_1_11" x1="75.7193" y1="112.496" x2="20.1582" y2="-25.7499" gradientUnits="userSpaceOnUse">
<stop stop-color="#FFA434"/>
<stop offset="1" stop-color="#FFA434"/>
</linearGradient>
<linearGradient id="paint12_linear_1_11" x1="98.3617" y1="112.496" x2="42.8007" y2="-25.7499" gradientUnits="userSpaceOnUse">
<stop stop-color="#FFA434"/>
<stop offset="1" stop-color="#FFA434"/>
</linearGradient>
<linearGradient id="paint13_linear_1_11" x1="98.3624" y1="112.496" x2="42.8014" y2="-25.7499" gradientUnits="userSpaceOnUse">
<stop stop-color="#FFA434"/>
<stop offset="1" stop-color="#FFA434"/>
</linearGradient>
<linearGradient id="paint14_linear_1_11" x1="121.005" y1="112.496" x2="65.4435" y2="-25.7499" gradientUnits="userSpaceOnUse">
<stop stop-color="#FFA434"/>
<stop offset="1" stop-color="#FFA434"/>
</linearGradient>
<linearGradient id="paint15_linear_1_11" x1="121.005" y1="112.496" x2="65.4441" y2="-25.7499" gradientUnits="userSpaceOnUse">
<stop stop-color="#FFA434"/>
<stop offset="1" stop-color="#FFA434"/>
</linearGradient>
<linearGradient id="paint16_linear_1_11" x1="53.076" y1="132.482" x2="-2.48604" y2="-5.76507" gradientUnits="userSpaceOnUse">
<stop stop-color="#FFA434"/>
<stop offset="1" stop-color="#FFA434"/>
</linearGradient>
<linearGradient id="paint17_linear_1_11" x1="53.076" y1="132.482" x2="-2.48604" y2="-5.76498" gradientUnits="userSpaceOnUse">
<stop stop-color="#FFA434"/>
<stop offset="1" stop-color="#FFA434"/>
</linearGradient>
<linearGradient id="paint18_linear_1_11" x1="75.7189" y1="132.482" x2="20.1569" y2="-5.76484" gradientUnits="userSpaceOnUse">
<stop stop-color="#FFA434"/>
<stop offset="1" stop-color="#FFA434"/>
</linearGradient>
<linearGradient id="paint19_linear_1_11" x1="75.7193" y1="132.482" x2="20.1573" y2="-5.76502" gradientUnits="userSpaceOnUse">
<stop stop-color="#FFA434"/>
<stop offset="1" stop-color="#FFA434"/>
</linearGradient>
<linearGradient id="paint20_linear_1_11" x1="98.3617" y1="132.482" x2="42.7998" y2="-5.76484" gradientUnits="userSpaceOnUse">
<stop stop-color="#FFA434"/>
<stop offset="1" stop-color="#FFA434"/>
</linearGradient>
<linearGradient id="paint21_linear_1_11" x1="98.3624" y1="132.482" x2="42.8004" y2="-5.76502" gradientUnits="userSpaceOnUse">
<stop stop-color="#FFA434"/>
<stop offset="1" stop-color="#FFA434"/>
</linearGradient>
<linearGradient id="paint22_linear_1_11" x1="121.005" y1="132.482" x2="65.4426" y2="-5.76484" gradientUnits="userSpaceOnUse">
<stop stop-color="#FFA434"/>
<stop offset="1" stop-color="#FFA434"/>
</linearGradient>
<linearGradient id="paint23_linear_1_11" x1="121.005" y1="132.482" x2="65.4432" y2="-5.76502" gradientUnits="userSpaceOnUse">
<stop stop-color="#FFA434"/>
<stop offset="1" stop-color="#FFA434"/>
</linearGradient>
<linearGradient id="paint24_linear_1_11" x1="53.076" y1="152.509" x2="-2.48604" y2="14.2617" gradientUnits="userSpaceOnUse">
<stop stop-color="#FFA434"/>
<stop offset="1" stop-color="#FFA434"/>
</linearGradient>
<linearGradient id="paint25_linear_1_11" x1="53.076" y1="152.509" x2="-2.48604" y2="14.2615" gradientUnits="userSpaceOnUse">
<stop stop-color="#FFA434"/>
<stop offset="1" stop-color="#FFA434"/>
</linearGradient>
<linearGradient id="paint26_linear_1_11" x1="75.7189" y1="152.509" x2="20.1569" y2="14.2617" gradientUnits="userSpaceOnUse">
<stop stop-color="#FFA434"/>
<stop offset="1" stop-color="#FFA434"/>
</linearGradient>
<linearGradient id="paint27_linear_1_11" x1="75.7193" y1="152.509" x2="20.1573" y2="14.2614" gradientUnits="userSpaceOnUse">
<stop stop-color="#FFA434"/>
<stop offset="1" stop-color="#FFA434"/>
</linearGradient>
<linearGradient id="paint28_linear_1_11" x1="98.3617" y1="152.509" x2="42.7998" y2="14.2617" gradientUnits="userSpaceOnUse">
<stop stop-color="#FFA434"/>
<stop offset="1" stop-color="#FFA434"/>
</linearGradient>
<linearGradient id="paint29_linear_1_11" x1="98.3624" y1="152.509" x2="42.8004" y2="14.2614" gradientUnits="userSpaceOnUse">
<stop stop-color="#FFA434"/>
<stop offset="1" stop-color="#FFA434"/>
</linearGradient>
<linearGradient id="paint30_linear_1_11" x1="121.005" y1="152.509" x2="65.4426" y2="14.2617" gradientUnits="userSpaceOnUse">
<stop stop-color="#FFA434"/>
<stop offset="1" stop-color="#FFA434"/>
</linearGradient>
<linearGradient id="paint31_linear_1_11" x1="121.005" y1="152.509" x2="65.4432" y2="14.2614" gradientUnits="userSpaceOnUse">
<stop stop-color="#FFA434"/>
<stop offset="1" stop-color="#FFA434"/>
</linearGradient>
</defs>
</svg>
